<svg xmlns="http://www.w3.org/2000/svg" viewBox="0 0 512 512" role="img" aria-labelledby="title desc">
  <title id="title">SeoulShelf logo</title>
  <desc id="desc">A rounded pink and purple delivery-bag logo with a Seoul-to-Boston motion line.</desc>
  <defs>
    <linearGradient id="bg" x1="70" y1="50" x2="440" y2="465" gradientUnits="userSpaceOnUse">
      <stop stop-color="#ff8fab"/>
      <stop offset="0.52" stop-color="#ff6f91"/>
      <stop offset="1" stop-color="#9d83ff"/>
    </linearGradient>
    <linearGradient id="bag" x1="150" y1="132" x2="352" y2="389" gradientUnits="userSpaceOnUse">
      <stop stop-color="#fff7fb"/>
      <stop offset="1" stop-color="#fff0df"/>
    </linearGradient>
    <filter id="shadow" x="-20%" y="-20%" width="140%" height="145%" color-interpolation-filters="sRGB">
      <feDropShadow dx="0" dy="20" stdDeviation="18" flood-color="#5b2540" flood-opacity="0.22"/>
    </filter>
  </defs>
  <rect width="512" height="512" rx="132" fill="url(#bg)"/>
  <path d="M88 146c29-35 73-52 128-52h64c69 0 123 22 162 66" fill="none" stroke="#fff" stroke-opacity=".42" stroke-width="18" stroke-linecap="round"/>
  <g filter="url(#shadow)">
    <path d="M152 197h208l24 202c4 34-22 63-56 63H184c-34 0-60-29-56-63l24-202Z" fill="url(#bag)"/>
    <path d="M198 207v-26c0-37 27-64 58-64s58 27 58 64v26" fill="none" stroke="#2b2530" stroke-width="22" stroke-linecap="round"/>
    <path d="M192 289h128" stroke="#2b2530" stroke-width="28" stroke-linecap="round"/>
    <path d="M192 346h88" stroke="#2b2530" stroke-width="28" stroke-linecap="round"/>
    <path d="M330 287l47 35-47 35" fill="none" stroke="#ff6f91" stroke-width="26" stroke-linecap="round" stroke-linejoin="round"/>
  </g>
  <path d="M71 319h86M54 376h96" stroke="#fff" stroke-width="20" stroke-linecap="round" opacity=".82"/>
  <circle cx="382" cy="134" r="24" fill="#fff" opacity=".88"/>
  <circle cx="417" cy="107" r="10" fill="#fff" opacity=".65"/>
</svg>
